<?xml version="1.0" standalone="no"?>
<!DOCTYPE svg PUBLIC "-//W3C//DTD SVG 20010904//EN"
 "http://www.w3.org/TR/2001/REC-SVG-20010904/DTD/svg10.dtd">
<svg version="1.0" xmlns="http://www.w3.org/2000/svg"
 width="1000.000000pt" height="1000.000000pt" viewBox="0 0 1000.000000 1000.000000"
 preserveAspectRatio="xMidYMid meet">
<metadata>
Created by potrace 1.14, written by Peter Selinger 2001-2017
</metadata>
<g transform="translate(0.000000,1000.000000) scale(0.100000,-0.100000)"
fill="#000000" stroke="none">
<path d="M6163 7968 c-24 -6 -43 -15 -43 -19 0 -5 -9 -9 -20 -9 -11 0 -20 -4
-20 -10 0 -5 -7 -10 -15 -10 -8 0 -24 -9 -35 -20 -11 -11 -20 -17 -20 -14 0 3
-9 -4 -20 -17 -10 -13 -19 -21 -20 -16 0 15 -200 -175 -200 -191 0 -5 -7 -12
-15 -16 -8 -3 -15 -12 -15 -21 0 -8 -5 -15 -10 -15 -6 0 -18 -17 -28 -37 -9
-21 -20 -40 -23 -43 -5 -5 -33 -69 -35 -80 0 -3 -6 -18 -13 -35 -7 -16 -19
-44 -27 -62 -13 -31 -44 -156 -60 -238 -17 -93 -21 -403 -6 -432 8 -15 9 -24
2 -28 -7 -4 -8 -22 -5 -43 4 -21 8 -62 11 -92 4 -59 12 -135 14 -135 1 0 3
-26 5 -58 2 -31 7 -62 11 -68 4 -7 8 -32 9 -58 2 -43 10 -93 21 -131 3 -13
-27 -15 -234 -14 -130 0 -247 -3 -259 -7 -11 -4 -33 -5 -48 -1 -15 4 -54 5
-86 2 -33 -3 -62 -4 -64 -2 -11 12 -463 16 -681 6 -103 -4 -143 -3 -149 6 -4
6 -6 35 -5 63 7 148 -2 549 -14 637 -2 14 -7 56 -11 95 -4 38 -10 76 -15 85
-4 8 -11 38 -15 65 -10 61 -9 56 -29 130 -9 33 -19 72 -21 86 -5 38 -36 132
-48 147 -5 6 -6 12 -2 12 3 0 -3 16 -15 35 -12 19 -18 35 -13 35 4 0 1 6 -8
13 -9 7 -19 22 -23 35 -4 12 -14 22 -22 22 -8 0 -12 5 -9 10 11 17 -159 220
-185 220 -6 0 -13 7 -16 15 -4 8 -10 12 -15 9 -5 -3 -12 1 -15 10 -3 8 -12 12
-21 9 -8 -3 -19 0 -23 7 -23 36 -195 56 -315 35 -50 -8 -115 -35 -115 -47 0
-5 -4 -7 -9 -4 -5 3 -20 -3 -34 -14 -14 -11 -30 -20 -36 -20 -6 0 -11 -6 -11
-13 0 -7 -17 -23 -38 -35 -21 -11 -44 -32 -52 -46 -7 -14 -16 -23 -20 -21 -6
3 -42 -35 -87 -94 -27 -34 -66 -96 -67 -108 -1 -7 -9 -20 -18 -30 -9 -10 -19
-35 -23 -55 -4 -21 -11 -38 -15 -38 -7 0 -20 -43 -25 -80 -1 -9 -7 -25 -13
-35 -5 -11 -13 -42 -17 -70 -4 -27 -11 -55 -16 -61 -5 -6 -11 -35 -14 -65 -3
-30 -8 -65 -12 -79 -3 -14 -7 -68 -9 -120 -2 -52 -4 -97 -4 -100 -1 -3 -1 -73
0 -156 0 -130 4 -226 14 -349 2 -16 -1 -38 -6 -48 -5 -9 -5 -23 -1 -30 4 -6 9
-41 10 -77 l4 -66 -118 -2 c-65 -1 -179 -2 -253 -3 -75 0 -141 -6 -147 -11 -7
-6 -13 -7 -13 -3 0 4 -7 1 -16 -6 -9 -7 -23 -14 -32 -16 -9 -1 -18 -7 -20 -12
-2 -6 -9 -11 -16 -11 -7 0 -24 -12 -38 -27 -14 -16 -40 -39 -58 -53 -58 -45
-151 -133 -146 -138 3 -2 -6 -13 -19 -24 -14 -11 -25 -24 -25 -30 0 -5 -13
-27 -30 -48 -16 -20 -27 -40 -23 -44 3 -3 2 -6 -4 -6 -6 0 -18 -17 -27 -37
-10 -21 -28 -56 -40 -79 -54 -94 -60 -151 -61 -519 0 -187 3 -383 7 -435 4
-52 10 -124 12 -160 3 -36 8 -110 11 -165 3 -55 8 -120 11 -145 3 -25 7 -67 9
-95 3 -58 13 -168 21 -238 3 -26 8 -69 10 -95 8 -106 24 -192 35 -192 6 0 7
-5 3 -12 -10 -16 -6 -65 6 -89 6 -11 7 -20 0 -24 -5 -3 -7 -11 -5 -18 6 -16
15 -89 21 -157 4 -57 11 -115 14 -115 2 0 11 -92 13 -127 1 -10 6 -18 11 -18
6 0 6 -4 -1 -11 -7 -7 -7 -25 0 -57 5 -26 10 -57 12 -69 1 -13 5 -26 8 -30 4
-3 7 -14 7 -23 0 -9 9 -25 20 -35 11 -10 22 -27 26 -38 3 -11 18 -31 33 -45
31 -29 165 -128 168 -125 2 2 14 -7 27 -18 13 -12 28 -21 33 -22 4 0 14 -7 21
-14 8 -7 18 -11 23 -8 5 4 9 2 9 -4 0 -5 30 -24 68 -43 37 -18 70 -36 73 -41
3 -4 15 -9 27 -12 12 -2 34 -11 49 -19 125 -67 254 -89 518 -89 77 1 145 2
150 3 6 1 12 1 15 0 15 -6 418 -5 431 2 9 4 20 4 23 0 4 -4 215 -8 469 -9 254
-1 505 -5 557 -8 92 -7 535 -11 615 -7 22 1 108 2 192 3 83 0 162 2 175 6 36
9 474 7 558 -3 91 -11 528 -11 625 0 39 4 97 9 130 11 156 9 223 15 236 19 17
6 151 13 379 22 197 7 221 8 280 19 25 5 53 10 63 11 9 1 18 3 20 4 1 1 11 4
22 5 73 9 170 46 262 99 43 25 103 81 99 93 -3 7 3 14 12 18 18 5 75 112 75
139 0 9 4 16 9 16 4 0 8 11 8 24 0 13 7 29 15 36 8 7 12 16 9 21 -3 5 -1 9 4
9 5 0 9 6 10 13 0 6 8 37 17 67 19 67 25 131 13 146 -5 7 -5 22 0 35 11 28 9
389 -1 406 -4 6 -3 14 2 17 8 5 9 130 1 161 -1 6 -1 12 0 15 1 3 4 93 6 200 2
107 6 209 9 225 6 29 13 83 20 155 5 47 15 111 21 132 18 62 26 676 10 793 -4
33 -10 159 -11 280 -4 249 -9 306 -28 320 -8 6 -12 16 -9 24 2 7 0 16 -5 20
-5 3 -19 23 -32 44 -12 20 -26 37 -31 37 -5 0 -18 15 -29 33 -11 18 -33 40
-48 48 -15 7 -35 21 -43 29 -30 29 -163 98 -225 116 -34 10 -64 16 -95 20 -19
2 -53 8 -75 15 -22 6 -49 10 -60 10 -10 0 -24 4 -30 9 -6 5 -20 9 -30 9 -11 0
-36 2 -55 5 -134 18 -190 21 -398 21 l-232 0 -1 25 c0 14 -2 61 -4 105 -2 44
-6 150 -10 235 -5 137 -10 215 -14 215 -1 0 -4 24 -6 53 -2 28 -7 58 -11 64
-5 7 -9 19 -10 28 -1 15 -7 39 -19 90 -3 14 -8 39 -10 55 -5 44 -34 157 -47
182 -6 12 -8 29 -5 37 3 8 2 18 -3 21 -6 4 -10 19 -10 35 0 16 -7 50 -16 75
-8 25 -16 63 -18 84 -2 21 -6 43 -10 50 -4 6 -9 23 -12 37 -15 83 -69 192
-142 287 -61 81 -158 177 -177 177 -9 0 -18 7 -22 16 -14 38 -157 63 -240 42z
m1154 -2054 c-3 -3 -12 -4 -19 -1 -8 3 -5 6 6 6 11 1 17 -2 13 -5z m-374 -11
c-7 -2 -19 -2 -25 0 -7 3 -2 5 12 5 14 0 19 -2 13 -5z m982 -83 c3 -5 1 -10
-4 -10 -6 0 -11 5 -11 10 0 6 2 10 4 10 3 0 8 -4 11 -10z m-5918 -116 c-3 -3
-12 -4 -19 -1 -8 3 -5 6 6 6 11 1 17 -2 13 -5z m2438 -544 c3 -6 -1 -7 -9 -4
-18 7 -21 14 -7 14 6 0 13 -4 16 -10z m-248 -46 c-3 -3 -12 -4 -19 -1 -8 3 -5
6 6 6 11 1 17 -2 13 -5z m-267 -38 c0 -2 -8 -10 -17 -17 -16 -13 -17 -12 -4 4
13 16 21 21 21 13z m-2240 -56 c0 -5 -5 -10 -11 -10 -5 0 -7 5 -4 10 3 6 8 10
11 10 2 0 4 -4 4 -10z m2180 -4 c0 -2 -8 -10 -17 -17 -16 -13 -17 -12 -4 4 13
16 21 21 21 13z m487 -218 c-3 -7 -5 -2 -5 12 0 14 2 19 5 13 2 -7 2 -19 0
-25z m190 -40 c-3 -8 -6 -5 -6 6 -1 11 2 17 5 13 3 -3 4 -12 1 -19z m1640 0
c-3 -8 -6 -5 -6 6 -1 11 2 17 5 13 3 -3 4 -12 1 -19z m-170 -20 c-3 -8 -6 -5
-6 6 -1 11 2 17 5 13 3 -3 4 -12 1 -19z m-1660 -30 c-3 -8 -6 -5 -6 6 -1 11 2
17 5 13 3 -3 4 -12 1 -19z m1830 -90 c-3 -8 -6 -5 -6 6 -1 11 2 17 5 13 3 -3
4 -12 1 -19z m3 -28 c0 -5 -5 -10 -11 -10 -5 0 -7 5 -4 10 3 6 8 10 11 10 2 0
4 -4 4 -10z m-1643 -152 c-3 -7 -5 -2 -5 12 0 14 2 19 5 13 2 -7 2 -19 0 -25z
m-30 -90 c-3 -8 -6 -5 -6 6 -1 11 2 17 5 13 3 -3 4 -12 1 -19z m-42 -48 c-3
-5 -12 -10 -18 -10 -7 0 -6 4 3 10 19 12 23 12 15 0z m-2738 -372 c-3 -8 -6
-5 -6 6 -1 11 2 17 5 13 3 -3 4 -12 1 -19z m6450 -190 c-3 -7 -5 -2 -5 12 0
14 2 19 5 13 2 -7 2 -19 0 -25z m-6397 -278 c0 -5 -2 -10 -4 -10 -3 0 -8 5
-11 10 -3 6 -1 10 4 10 6 0 11 -4 11 -10z m7 -102 c-3 -8 -6 -5 -6 6 -1 11 2
17 5 13 3 -3 4 -12 1 -19z m2300 -60 c-3 -8 -6 -5 -6 6 -1 11 2 17 5 13 3 -3
4 -12 1 -19z m4090 -110 c-3 -7 -5 -2 -5 12 0 14 2 19 5 13 2 -7 2 -19 0 -25z
m-2767 -182 c0 -2 -8 -10 -17 -17 -16 -13 -17 -12 -4 4 13 16 21 21 21 13z
m-613 -42 c-3 -3 -12 -4 -19 -1 -8 3 -5 6 6 6 11 1 17 -2 13 -5z m-2347 -658
c0 -11 -19 -15 -25 -6 -3 5 1 10 9 10 9 0 16 -2 16 -4z m543 -43 c-7 -2 -19
-2 -25 0 -7 3 -2 5 12 5 14 0 19 -2 13 -5z m374 1 c-3 -3 -12 -4 -19 -1 -8 3
-5 6 6 6 11 1 17 -2 13 -5z m2386 -11 c-7 -2 -21 -2 -30 0 -10 3 -4 5 12 5 17
0 24 -2 18 -5z m140 0 c-7 -2 -19 -2 -25 0 -7 3 -2 5 12 5 14 0 19 -2 13 -5z
m450 -20 c-7 -2 -21 -2 -30 0 -10 3 -4 5 12 5 17 0 24 -2 18 -5z"/>
</g>
</svg>
